<svg xmlns="http://www.w3.org/2000/svg" width="21.386" height="21.079" viewBox="0 0 21.386 21.079">
  <g id="Home" transform="translate(-119.596 -250.06)">
    <path id="home-2" data-name="home" d="M6.613,19.708V12.567A1.328,1.328,0,0,1,7.939,11.24h2.54a1.328,1.328,0,0,1,1.326,1.326v7.141Z" transform="translate(121.057 250.681)" fill="none" stroke="#faa61a" stroke-width="1.5"/>
    <path id="home-3" data-name="home" d="M19.05,8.516h0L11.062.528a1.8,1.8,0,0,0-2.549,0L.531,8.51l-.008.008a1.8,1.8,0,0,0,1.2,3.071l.056,0H2.1v5.877a2.112,2.112,0,0,0,2.11,2.109H15.37a2.112,2.112,0,0,0,2.11-2.109V11.592h.3A1.8,1.8,0,0,0,19.05,8.516Zm0,0" transform="translate(120.5 250.81)" fill="none" stroke="#004e96" stroke-width="1.5"/>
  </g>
</svg>
